<svg width="51" height="51" viewBox="0 0 51 51" fill="none" xmlns="http://www.w3.org/2000/svg">
<path d="M25.1094 14.4199V17.5449" stroke="#2772C7" stroke-width="1.8" stroke-linecap="round" stroke-linejoin="round"/>
<path d="M25.1094 33.1699V36.2949" stroke="#2772C7" stroke-width="1.8" stroke-linecap="round" stroke-linejoin="round"/>
<path d="M25.1094 44.1074C35.4647 44.1074 43.8594 35.7128 43.8594 25.3574C43.8594 15.0021 35.4647 6.60742 25.1094 6.60742C14.754 6.60742 6.35938 15.0021 6.35938 25.3574C6.35938 35.7128 14.754 44.1074 25.1094 44.1074Z" stroke="#2772C7" stroke-width="1.8" stroke-linecap="round" stroke-linejoin="round"/>
<path d="M20.4219 33.1699H27.4531C28.4891 33.1699 29.4827 32.7584 30.2153 32.0258C30.9478 31.2932 31.3594 30.2997 31.3594 29.2637C31.3594 28.2277 30.9478 27.2341 30.2153 26.5015C29.4827 25.769 28.4891 25.3574 27.4531 25.3574H22.7656C21.7296 25.3574 20.7361 24.9459 20.0035 24.2133C19.2709 23.4807 18.8594 22.4872 18.8594 21.4512C18.8594 20.4152 19.2709 19.4216 20.0035 18.689C20.7361 17.9565 21.7296 17.5449 22.7656 17.5449H29.7969" stroke="#2772C7" stroke-width="1.8" stroke-linecap="round" stroke-linejoin="round"/>
</svg>
