<svg width="51" height="51" viewBox="0 0 51 51" fill="none" xmlns="http://www.w3.org/2000/svg">
<path d="M30.2969 22.2324H38.1094" stroke="#2772C7" stroke-width="1.8" stroke-linecap="round" stroke-linejoin="round"/>
<path d="M30.2969 28.4824H38.1094" stroke="#2772C7" stroke-width="1.8" stroke-linecap="round" stroke-linejoin="round"/>
<path d="M18.5977 28.4824C21.1865 28.4824 23.2852 26.3838 23.2852 23.7949C23.2852 21.2061 21.1865 19.1074 18.5977 19.1074C16.0088 19.1074 13.9102 21.2061 13.9102 23.7949C13.9102 26.3838 16.0088 28.4824 18.5977 28.4824Z" stroke="#2772C7" stroke-width="1.8" stroke-linecap="round" stroke-linejoin="round"/>
<path d="M12.5449 33.1698C12.8917 31.8282 13.6744 30.6398 14.77 29.7913C15.8656 28.9429 17.2121 28.4825 18.5978 28.4824C19.9835 28.4824 21.33 28.9427 22.4256 29.7911C23.5213 30.6395 24.3041 31.8278 24.651 33.1694" stroke="#2772C7" stroke-width="1.8" stroke-linecap="round" stroke-linejoin="round"/>
<path d="M42.7969 9.73242H8.42188C7.55893 9.73242 6.85938 10.432 6.85938 11.2949V39.4199C6.85938 40.2829 7.55893 40.9824 8.42188 40.9824H42.7969C43.6598 40.9824 44.3594 40.2829 44.3594 39.4199V11.2949C44.3594 10.432 43.6598 9.73242 42.7969 9.73242Z" stroke="#2772C7" stroke-width="1.8" stroke-linecap="round" stroke-linejoin="round"/>
</svg>
